<?xml version="1.0" encoding="UTF-8" standalone="no"?>
<!DOCTYPE svg PUBLIC "-//W3C//DTD SVG 1.1//EN"
 "http://www.w3.org/Graphics/SVG/1.1/DTD/svg11.dtd">
<!-- Generated by graphviz version 2.38.0 (20140413.2041)
 -->
<!-- Title: G Pages: 1 -->
<svg width="1032pt" height="2082pt"
 viewBox="0.00 0.00 1031.94 2082.00" xmlns="http://www.w3.org/2000/svg" xmlns:xlink="http://www.w3.org/1999/xlink">
<g id="graph0" class="graph" transform="scale(1 1) rotate(0) translate(4 2078)">
<title>G</title>
<polygon fill="white" stroke="none" points="-4,4 -4,-2078 1027.94,-2078 1027.94,4 -4,4"/>
<g id="clust1" class="cluster"><title>cluster_Global</title>
<path fill="none" stroke="gray" d="M497.408,-746C497.408,-746 1003.94,-746 1003.94,-746 1009.94,-746 1015.94,-752 1015.94,-758 1015.94,-758 1015.94,-2054 1015.94,-2054 1015.94,-2060 1009.94,-2066 1003.94,-2066 1003.94,-2066 497.408,-2066 497.408,-2066 491.408,-2066 485.408,-2060 485.408,-2054 485.408,-2054 485.408,-758 485.408,-758 485.408,-752 491.408,-746 497.408,-746"/>
<text text-anchor="middle" x="750.672" y="-2053.2" font-family="Times,serif" font-size="11.00" fill="gray">Global</text>
</g>
<g id="clust2" class="cluster"><title>cluster_\App</title>
<path fill="none" stroke="gray" d="M505.408,-800C505.408,-800 995.937,-800 995.937,-800 1001.94,-800 1007.94,-806 1007.94,-812 1007.94,-812 1007.94,-2026 1007.94,-2026 1007.94,-2032 1001.94,-2038 995.937,-2038 995.937,-2038 505.408,-2038 505.408,-2038 499.408,-2038 493.408,-2032 493.408,-2026 493.408,-2026 493.408,-812 493.408,-812 493.408,-806 499.408,-800 505.408,-800"/>
<text text-anchor="middle" x="750.672" y="-2025.2" font-family="Times,serif" font-size="11.00" fill="gray">App</text>
</g>
<g id="clust3" class="cluster"><title>cluster_\App\Events</title>
<path fill="none" stroke="gray" d="M894.437,-1938C894.437,-1938 948.437,-1938 948.437,-1938 954.437,-1938 960.437,-1944 960.437,-1950 960.437,-1950 960.437,-1998 960.437,-1998 960.437,-2004 954.437,-2010 948.437,-2010 948.437,-2010 894.437,-2010 894.437,-2010 888.437,-2010 882.437,-2004 882.437,-1998 882.437,-1998 882.437,-1950 882.437,-1950 882.437,-1944 888.437,-1938 894.437,-1938"/>
<text text-anchor="middle" x="921.437" y="-1997.2" font-family="Times,serif" font-size="11.00" fill="gray">Events</text>
</g>
<g id="clust4" class="cluster"><title>cluster_\App\Exceptions</title>
<path fill="none" stroke="gray" d="M898.437,-1858C898.437,-1858 944.437,-1858 944.437,-1858 950.437,-1858 956.437,-1864 956.437,-1870 956.437,-1870 956.437,-1918 956.437,-1918 956.437,-1924 950.437,-1930 944.437,-1930 944.437,-1930 898.437,-1930 898.437,-1930 892.437,-1930 886.437,-1924 886.437,-1918 886.437,-1918 886.437,-1870 886.437,-1870 886.437,-1864 892.437,-1858 898.437,-1858"/>
<text text-anchor="middle" x="921.437" y="-1917.2" font-family="Times,serif" font-size="11.00" fill="gray">Exceptions</text>
</g>
<g id="clust5" class="cluster"><title>cluster_\App\Console</title>
<path fill="none" stroke="gray" d="M890.437,-1696C890.437,-1696 952.437,-1696 952.437,-1696 958.437,-1696 964.437,-1702 964.437,-1708 964.437,-1708 964.437,-1838 964.437,-1838 964.437,-1844 958.437,-1850 952.437,-1850 952.437,-1850 890.437,-1850 890.437,-1850 884.437,-1850 878.437,-1844 878.437,-1838 878.437,-1838 878.437,-1708 878.437,-1708 878.437,-1702 884.437,-1696 890.437,-1696"/>
<text text-anchor="middle" x="921.437" y="-1837.2" font-family="Times,serif" font-size="11.00" fill="gray">Console</text>
</g>
<g id="clust6" class="cluster"><title>cluster_\App\Console\Commands</title>
<path fill="none" stroke="gray" d="M898.437,-1750C898.437,-1750 944.437,-1750 944.437,-1750 950.437,-1750 956.437,-1756 956.437,-1762 956.437,-1762 956.437,-1810 956.437,-1810 956.437,-1816 950.437,-1822 944.437,-1822 944.437,-1822 898.437,-1822 898.437,-1822 892.437,-1822 886.437,-1816 886.437,-1810 886.437,-1810 886.437,-1762 886.437,-1762 886.437,-1756 892.437,-1750 898.437,-1750"/>
<text text-anchor="middle" x="921.437" y="-1809.2" font-family="Times,serif" font-size="11.00" fill="gray">Commands</text>
</g>
<g id="clust7" class="cluster"><title>cluster_\App\Jobs</title>
<path fill="none" stroke="gray" d="M894.437,-1616C894.437,-1616 948.437,-1616 948.437,-1616 954.437,-1616 960.437,-1622 960.437,-1628 960.437,-1628 960.437,-1676 960.437,-1676 960.437,-1682 954.437,-1688 948.437,-1688 948.437,-1688 894.437,-1688 894.437,-1688 888.437,-1688 882.437,-1682 882.437,-1676 882.437,-1676 882.437,-1628 882.437,-1628 882.437,-1622 888.437,-1616 894.437,-1616"/>
<text text-anchor="middle" x="921.437" y="-1675.2" font-family="Times,serif" font-size="11.00" fill="gray">Jobs</text>
</g>
<g id="clust8" class="cluster"><title>cluster_\App\Http</title>
<path fill="none" stroke="gray" d="M513.408,-1042C513.408,-1042 987.937,-1042 987.937,-1042 993.937,-1042 999.937,-1048 999.937,-1054 999.937,-1054 999.937,-1596 999.937,-1596 999.937,-1602 993.937,-1608 987.937,-1608 987.937,-1608 513.408,-1608 513.408,-1608 507.408,-1608 501.408,-1602 501.408,-1596 501.408,-1596 501.408,-1054 501.408,-1054 501.408,-1048 507.408,-1042 513.408,-1042"/>
<text text-anchor="middle" x="750.672" y="-1595.2" font-family="Times,serif" font-size="11.00" fill="gray">Http</text>
</g>
<g id="clust9" class="cluster"><title>cluster_\App\Http\Controllers</title>
<path fill="none" stroke="gray" d="M521.408,-1418C521.408,-1418 977.437,-1418 977.437,-1418 983.437,-1418 989.437,-1424 989.437,-1430 989.437,-1430 989.437,-1568 989.437,-1568 989.437,-1574 983.437,-1580 977.437,-1580 977.437,-1580 521.408,-1580 521.408,-1580 515.408,-1580 509.408,-1574 509.408,-1568 509.408,-1568 509.408,-1430 509.408,-1430 509.408,-1424 515.408,-1418 521.408,-1418"/>
<text text-anchor="middle" x="749.422" y="-1567.2" font-family="Times,serif" font-size="11.00" fill="gray">Controllers</text>
</g>
<g id="clust10" class="cluster"><title>cluster_\App\Http\Controllers\Auth</title>
<path fill="none" stroke="gray" d="M873.437,-1426C873.437,-1426 969.437,-1426 969.437,-1426 975.437,-1426 981.437,-1432 981.437,-1438 981.437,-1438 981.437,-1540 981.437,-1540 981.437,-1546 975.437,-1552 969.437,-1552 969.437,-1552 873.437,-1552 873.437,-1552 867.437,-1552 861.437,-1546 861.437,-1540 861.437,-1540 861.437,-1438 861.437,-1438 861.437,-1432 867.437,-1426 873.437,-1426"/>
<text text-anchor="middle" x="921.437" y="-1539.2" font-family="Times,serif" font-size="11.00" fill="gray">Auth</text>
</g>
<g id="clust11" class="cluster"><title>cluster_\App\Http\Middleware</title>
<path fill="none" stroke="gray" d="M862.937,-1176C862.937,-1176 979.937,-1176 979.937,-1176 985.937,-1176 991.937,-1182 991.937,-1188 991.937,-1188 991.937,-1398 991.937,-1398 991.937,-1404 985.937,-1410 979.937,-1410 979.937,-1410 862.937,-1410 862.937,-1410 856.937,-1410 850.937,-1404 850.937,-1398 850.937,-1398 850.937,-1188 850.937,-1188 850.937,-1182 856.937,-1176 862.937,-1176"/>
<text text-anchor="middle" x="921.437" y="-1397.2" font-family="Times,serif" font-size="11.00" fill="gray">Middleware</text>
</g>
<g id="clust12" class="cluster"><title>cluster_\App\Http\Requests</title>
<path fill="none" stroke="gray" d="M894.437,-1096C894.437,-1096 948.437,-1096 948.437,-1096 954.437,-1096 960.437,-1102 960.437,-1108 960.437,-1108 960.437,-1156 960.437,-1156 960.437,-1162 954.437,-1168 948.437,-1168 948.437,-1168 894.437,-1168 894.437,-1168 888.437,-1168 882.437,-1162 882.437,-1156 882.437,-1156 882.437,-1108 882.437,-1108 882.437,-1102 888.437,-1096 894.437,-1096"/>
<text text-anchor="middle" x="921.437" y="-1155.2" font-family="Times,serif" font-size="11.00" fill="gray">Requests</text>
</g>
<g id="clust13" class="cluster"><title>cluster_\App\Providers</title>
<path fill="none" stroke="gray" d="M868.437,-854C868.437,-854 974.437,-854 974.437,-854 980.437,-854 986.437,-860 986.437,-866 986.437,-866 986.437,-1022 986.437,-1022 986.437,-1028 980.437,-1034 974.437,-1034 974.437,-1034 868.437,-1034 868.437,-1034 862.437,-1034 856.437,-1028 856.437,-1022 856.437,-1022 856.437,-866 856.437,-866 856.437,-860 862.437,-854 868.437,-854"/>
<text text-anchor="middle" x="921.437" y="-1021.2" font-family="Times,serif" font-size="11.00" fill="gray">Providers</text>
</g>
<!-- \\App\\Events\\Event -->
<g id="node1" class="node"><title>\\App\\Events\\Event</title>
<polygon fill="none" stroke="black" points="952.437,-1982 890.437,-1982 890.437,-1946 952.437,-1946 952.437,-1982"/>
<text text-anchor="start" x="898.437" y="-1967.2" font-family="Times,serif" font-size="11.00">«abstract»</text>
<text text-anchor="start" x="908.437" y="-1955.2" font-family="Times,serif" font-size="11.00">Event</text>
</g>
<!-- \\App\\Exceptions\\Handler -->
<g id="node2" class="node"><title>\\App\\Exceptions\\Handler</title>
<polygon fill="none" stroke="black" points="948.437,-1902 894.437,-1902 894.437,-1866 948.437,-1866 948.437,-1902"/>
<text text-anchor="middle" x="921.437" y="-1881.2" font-family="Times,serif" font-size="11.00">Handler</text>
</g>
<!-- \\Illuminate\\Foundation\\Exceptions\\Handler -->
<g id="node20" class="node"><title>\\Illuminate\\Foundation\\Exceptions\\Handler</title>
<ellipse fill="none" stroke="black" cx="548.408" cy="-720" rx="164.371" ry="18"/>
<text text-anchor="middle" x="548.408" y="-716.3" font-family="Times,serif" font-size="14.00" fill="gray">\Illuminate\Foundation\Exceptions\Handler</text>
</g>
<!-- \\App\\Exceptions\\Handler&#45;&gt;\\Illuminate\\Foundation\\Exceptions\\Handler -->
<g id="edge1" class="edge"><title>\\App\\Exceptions\\Handler&#45;&gt;\\Illuminate\\Foundation\\Exceptions\\Handler</title>
<path fill="none" stroke="black" d="M894.157,-1868.84C879.033,-1858.69 861.072,-1843.92 850.937,-1826 759.71,-1664.7 831.333,-1593.91 786.937,-1414 721.431,-1148.55 598.728,-840.207 560.844,-747.631"/>
<polygon fill="none" stroke="black" points="563.984,-746.065 556.948,-738.143 557.509,-748.723 563.984,-746.065"/>
</g>
<!-- \\App\\Console\\Commands\\Inspire -->
<g id="node3" class="node"><title>\\App\\Console\\Commands\\Inspire</title>
<polygon fill="none" stroke="black" points="948.437,-1794 894.437,-1794 894.437,-1758 948.437,-1758 948.437,-1794"/>
<text text-anchor="middle" x="921.437" y="-1773.2" font-family="Times,serif" font-size="11.00">Inspire</text>
</g>
<!-- \\Illuminate\\Console\\Command -->
<g id="node25" class="node"><title>\\Illuminate\\Console\\Command</title>
<ellipse fill="none" stroke="black" cx="548.408" cy="-666" rx="120.779" ry="18"/>
<text text-anchor="middle" x="548.408" y="-662.3" font-family="Times,serif" font-size="14.00" fill="gray">\Illuminate\Console\Command</text>
</g>
<!-- \\App\\Console\\Commands\\Inspire&#45;&gt;\\Illuminate\\Console\\Command -->
<g id="edge6" class="edge"><title>\\App\\Console\\Commands\\Inspire&#45;&gt;\\Illuminate\\Console\\Command</title>
<path fill="none" stroke="black" d="M894.2,-1774.74C879.091,-1772.53 861.131,-1767.07 850.937,-1754 705.697,-1567.72 949.481,-864.385 786.937,-693 748.782,-652.77 685.764,-647.175 634.222,-651.023"/>
<polygon fill="none" stroke="black" points="633.735,-647.552 624.078,-651.911 634.345,-654.525 633.735,-647.552"/>
</g>
<!-- \\App\\Console\\Kernel -->
<g id="node4" class="node"><title>\\App\\Console\\Kernel</title>
<polygon fill="none" stroke="black" points="948.437,-1740 894.437,-1740 894.437,-1704 948.437,-1704 948.437,-1740"/>
<text text-anchor="middle" x="921.437" y="-1719.2" font-family="Times,serif" font-size="11.00">Kernel</text>
</g>
<!-- \\Illuminate\\Foundation\\Console\\Kernel -->
<g id="node24" class="node"><title>\\Illuminate\\Foundation\\Console\\Kernel</title>
<ellipse fill="none" stroke="black" cx="548.408" cy="-612" rx="149.473" ry="18"/>
<text text-anchor="middle" x="548.408" y="-608.3" font-family="Times,serif" font-size="14.00" fill="gray">\Illuminate\Foundation\Console\Kernel</text>
</g>
<!-- \\App\\Console\\Kernel&#45;&gt;\\Illuminate\\Foundation\\Console\\Kernel -->
<g id="edge5" class="edge"><title>\\App\\Console\\Kernel&#45;&gt;\\Illuminate\\Foundation\\Console\\Kernel</title>
<path fill="none" stroke="black" d="M894.33,-1717.7C879.069,-1713.73 860.903,-1706.2 850.937,-1692 716.254,-1500.12 948.299,-809.061 786.937,-639 750.923,-601.046 692.779,-593.924 643.032,-596.473"/>
<polygon fill="none" stroke="black" points="642.633,-592.991 632.88,-597.131 643.086,-599.977 642.633,-592.991"/>
</g>
<!-- \\App\\Jobs\\Job -->
<g id="node5" class="node"><title>\\App\\Jobs\\Job</title>
<polygon fill="none" stroke="black" points="952.437,-1660 890.437,-1660 890.437,-1624 952.437,-1624 952.437,-1660"/>
<text text-anchor="start" x="898.437" y="-1645.2" font-family="Times,serif" font-size="11.00">«abstract»</text>
<text text-anchor="start" x="913.437" y="-1633.2" font-family="Times,serif" font-size="11.00">Job</text>
</g>
<!-- \\App\\Http\\Controllers\\Auth\\PasswordController -->
<g id="node6" class="node"><title>\\App\\Http\\Controllers\\Auth\\PasswordController</title>
<polygon fill="none" stroke="black" points="973.437,-1524 869.437,-1524 869.437,-1488 973.437,-1488 973.437,-1524"/>
<text text-anchor="middle" x="921.437" y="-1503.2" font-family="Times,serif" font-size="11.00">PasswordController</text>
</g>
<!-- \\App\\Http\\Controllers\\Controller -->
<g id="node8" class="node"><title>\\App\\Http\\Controllers\\Controller</title>
<polygon fill="none" stroke="black" points="579.408,-1497 517.408,-1497 517.408,-1461 579.408,-1461 579.408,-1497"/>
<text text-anchor="start" x="525.408" y="-1482.2" font-family="Times,serif" font-size="11.00">«abstract»</text>
<text text-anchor="start" x="525.408" y="-1470.2" font-family="Times,serif" font-size="11.00">Controller</text>
</g>
<!-- \\App\\Http\\Controllers\\Auth\\PasswordController&#45;&gt;\\App\\Http\\Controllers\\Controller -->
<g id="edge8" class="edge"><title>\\App\\Http\\Controllers\\Auth\\PasswordController&#45;&gt;\\App\\Http\\Controllers\\Controller</title>
<path fill="none" stroke="black" d="M869.236,-1502.27C794.7,-1496.85 657.815,-1486.89 589.87,-1481.94"/>
<polygon fill="none" stroke="black" points="589.805,-1478.43 579.577,-1481.2 589.297,-1485.41 589.805,-1478.43"/>
</g>
<!-- \\App\\Http\\Controllers\\Auth\\AuthController -->
<g id="node7" class="node"><title>\\App\\Http\\Controllers\\Auth\\AuthController</title>
<polygon fill="none" stroke="black" points="962.937,-1470 879.937,-1470 879.937,-1434 962.937,-1434 962.937,-1470"/>
<text text-anchor="middle" x="921.437" y="-1449.2" font-family="Times,serif" font-size="11.00">AuthController</text>
</g>
<!-- \\App\\Http\\Controllers\\Auth\\AuthController&#45;&gt;\\App\\Http\\Controllers\\Controller -->
<g id="edge9" class="edge"><title>\\App\\Http\\Controllers\\Auth\\AuthController&#45;&gt;\\App\\Http\\Controllers\\Controller</title>
<path fill="none" stroke="black" d="M879.669,-1454.97C808.225,-1460.17 661.236,-1470.86 589.951,-1476.05"/>
<polygon fill="none" stroke="black" points="589.311,-1472.59 579.592,-1476.8 589.819,-1479.57 589.311,-1472.59"/>
</g>
<!-- \\Illuminate\\Routing\\Controller -->
<g id="node27" class="node"><title>\\Illuminate\\Routing\\Controller</title>
<ellipse fill="none" stroke="black" cx="118.939" cy="-1479" rx="118.879" ry="18"/>
<text text-anchor="middle" x="118.939" y="-1475.3" font-family="Times,serif" font-size="14.00" fill="gray">\Illuminate\Routing\Controller</text>
</g>
<!-- \\App\\Http\\Controllers\\Controller&#45;&gt;\\Illuminate\\Routing\\Controller -->
<g id="edge10" class="edge"><title>\\App\\Http\\Controllers\\Controller&#45;&gt;\\Illuminate\\Routing\\Controller</title>
<path fill="none" stroke="black" d="M517.349,-1479C462.249,-1479 342.115,-1479 248.27,-1479"/>
<polygon fill="none" stroke="black" points="248.121,-1475.5 238.121,-1479 248.121,-1482.5 248.121,-1475.5"/>
</g>
<!-- \\App\\Http\\Middleware\\VerifyCsrfToken -->
<g id="node9" class="node"><title>\\App\\Http\\Middleware\\VerifyCsrfToken</title>
<polygon fill="none" stroke="black" points="967.937,-1382 874.937,-1382 874.937,-1346 967.937,-1346 967.937,-1382"/>
<text text-anchor="middle" x="921.437" y="-1361.2" font-family="Times,serif" font-size="11.00">VerifyCsrfToken</text>
</g>
<!-- \\Illuminate\\Foundation\\Http\\Middleware\\VerifyCsrfToken -->
<g id="node29" class="node"><title>\\Illuminate\\Foundation\\Http\\Middleware\\VerifyCsrfToken</title>
<ellipse fill="none" stroke="black" cx="548.408" cy="-558" rx="218.261" ry="18"/>
<text text-anchor="middle" x="548.408" y="-554.3" font-family="Times,serif" font-size="14.00" fill="gray">\Illuminate\Foundation\Http\Middleware\VerifyCsrfToken</text>
</g>
<!-- \\App\\Http\\Middleware\\VerifyCsrfToken&#45;&gt;\\Illuminate\\Foundation\\Http\\Middleware\\VerifyCsrfToken -->
<g id="edge12" class="edge"><title>\\App\\Http\\Middleware\\VerifyCsrfToken&#45;&gt;\\Illuminate\\Foundation\\Http\\Middleware\\VerifyCsrfToken</title>
<path fill="none" stroke="black" d="M874.778,-1354.56C865.577,-1350.6 856.91,-1344.98 850.937,-1337 750.431,-1202.73 903.84,-705.258 786.937,-585 780.751,-578.637 773.941,-573.148 766.655,-568.432"/>
<polygon fill="none" stroke="black" points="768.28,-565.327 757.892,-563.245 764.714,-571.351 768.28,-565.327"/>
</g>
<!-- \\App\\Http\\Middleware\\Authenticate -->
<g id="node10" class="node"><title>\\App\\Http\\Middleware\\Authenticate</title>
<polygon fill="none" stroke="black" points="958.437,-1328 884.437,-1328 884.437,-1292 958.437,-1292 958.437,-1328"/>
<text text-anchor="middle" x="921.437" y="-1307.2" font-family="Times,serif" font-size="11.00">Authenticate</text>
</g>
<!-- \\App\\Http\\Middleware\\EncryptCookies -->
<g id="node11" class="node"><title>\\App\\Http\\Middleware\\EncryptCookies</title>
<polygon fill="none" stroke="black" points="964.937,-1274 877.937,-1274 877.937,-1238 964.937,-1238 964.937,-1274"/>
<text text-anchor="middle" x="921.437" y="-1253.2" font-family="Times,serif" font-size="11.00">EncryptCookies</text>
</g>
<!-- \\Illuminate\\Cookie\\Middleware\\EncryptCookies -->
<g id="node30" class="node"><title>\\Illuminate\\Cookie\\Middleware\\EncryptCookies</title>
<ellipse fill="none" stroke="black" cx="548.408" cy="-504" rx="181.968" ry="18"/>
<text text-anchor="middle" x="548.408" y="-500.3" font-family="Times,serif" font-size="14.00" fill="gray">\Illuminate\Cookie\Middleware\EncryptCookies</text>
</g>
<!-- \\App\\Http\\Middleware\\EncryptCookies&#45;&gt;\\Illuminate\\Cookie\\Middleware\\EncryptCookies -->
<g id="edge13" class="edge"><title>\\App\\Http\\Middleware\\EncryptCookies&#45;&gt;\\Illuminate\\Cookie\\Middleware\\EncryptCookies</title>
<path fill="none" stroke="black" d="M877.699,-1247.71C867.446,-1243.72 857.559,-1237.79 850.937,-1229 757.188,-1104.61 895.873,-642.331 786.937,-531 753.54,-496.869 702.182,-487.964 655.754,-488.504"/>
<polygon fill="none" stroke="black" points="655.528,-485.008 645.623,-488.769 655.711,-492.006 655.528,-485.008"/>
</g>
<!-- \\App\\Http\\Middleware\\RedirectIfAuthenticated -->
<g id="node12" class="node"><title>\\App\\Http\\Middleware\\RedirectIfAuthenticated</title>
<polygon fill="none" stroke="black" points="983.937,-1220 858.937,-1220 858.937,-1184 983.937,-1184 983.937,-1220"/>
<text text-anchor="middle" x="921.437" y="-1199.2" font-family="Times,serif" font-size="11.00">RedirectIfAuthenticated</text>
</g>
<!-- \\App\\Http\\Requests\\Request -->
<g id="node13" class="node"><title>\\App\\Http\\Requests\\Request</title>
<polygon fill="none" stroke="black" points="952.437,-1140 890.437,-1140 890.437,-1104 952.437,-1104 952.437,-1140"/>
<text text-anchor="start" x="898.437" y="-1125.2" font-family="Times,serif" font-size="11.00">«abstract»</text>
<text text-anchor="start" x="902.937" y="-1113.2" font-family="Times,serif" font-size="11.00">Request</text>
</g>
<!-- \\Illuminate\\Foundation\\Http\\FormRequest -->
<g id="node31" class="node"><title>\\Illuminate\\Foundation\\Http\\FormRequest</title>
<ellipse fill="none" stroke="black" cx="548.408" cy="-450" rx="160.572" ry="18"/>
<text text-anchor="middle" x="548.408" y="-446.3" font-family="Times,serif" font-size="14.00" fill="gray">\Illuminate\Foundation\Http\FormRequest</text>
</g>
<!-- \\App\\Http\\Requests\\Request&#45;&gt;\\Illuminate\\Foundation\\Http\\FormRequest -->
<g id="edge14" class="edge"><title>\\App\\Http\\Requests\\Request&#45;&gt;\\Illuminate\\Foundation\\Http\\FormRequest</title>
<path fill="none" stroke="black" d="M890.197,-1119.88C876.131,-1117.25 860.445,-1111.68 850.937,-1100 763.069,-992.072 884.813,-575.941 786.937,-477 751.989,-441.672 697.772,-433.484 649.956,-434.777"/>
<polygon fill="none" stroke="black" points="649.707,-431.284 639.858,-435.191 649.993,-438.278 649.707,-431.284"/>
</g>
<!-- \\App\\Http\\Kernel -->
<g id="node14" class="node"><title>\\App\\Http\\Kernel</title>
<polygon fill="none" stroke="black" points="948.437,-1086 894.437,-1086 894.437,-1050 948.437,-1050 948.437,-1086"/>
<text text-anchor="middle" x="921.437" y="-1065.2" font-family="Times,serif" font-size="11.00">Kernel</text>
</g>
<!-- \\Illuminate\\Foundation\\Http\\Kernel -->
<g id="node26" class="node"><title>\\Illuminate\\Foundation\\Http\\Kernel</title>
<ellipse fill="none" stroke="black" cx="548.408" cy="-396" rx="136.476" ry="18"/>
<text text-anchor="middle" x="548.408" y="-392.3" font-family="Times,serif" font-size="14.00" fill="gray">\Illuminate\Foundation\Http\Kernel</text>
</g>
<!-- \\App\\Http\\Kernel&#45;&gt;\\Illuminate\\Foundation\\Http\\Kernel -->
<g id="edge7" class="edge"><title>\\App\\Http\\Kernel&#45;&gt;\\Illuminate\\Foundation\\Http\\Kernel</title>
<path fill="none" stroke="black" d="M894.197,-1063.45C879.088,-1059.41 861.128,-1051.88 850.937,-1038 769.598,-927.257 883.634,-520.62 786.937,-423 749.979,-385.69 691.527,-378.667 641.857,-381.105"/>
<polygon fill="none" stroke="black" points="641.489,-377.621 631.726,-381.737 641.925,-384.607 641.489,-377.621"/>
</g>
<!-- \\App\\Providers\\EventServiceProvider -->
<g id="node15" class="node"><title>\\App\\Providers\\EventServiceProvider</title>
<polygon fill="none" stroke="black" points="977.937,-1006 864.937,-1006 864.937,-970 977.937,-970 977.937,-1006"/>
<text text-anchor="middle" x="921.437" y="-985.2" font-family="Times,serif" font-size="11.00">EventServiceProvider</text>
</g>
<!-- \\Illuminate\\Foundation\\Support\\Providers\\EventServiceProvider -->
<g id="node32" class="node"><title>\\Illuminate\\Foundation\\Support\\Providers\\EventServiceProvider</title>
<ellipse fill="none" stroke="black" cx="548.408" cy="-342" rx="237.758" ry="18"/>
<text text-anchor="middle" x="548.408" y="-338.3" font-family="Times,serif" font-size="14.00" fill="gray">\Illuminate\Foundation\Support\Providers\EventServiceProvider</text>
</g>
<!-- \\App\\Providers\\EventServiceProvider&#45;&gt;\\Illuminate\\Foundation\\Support\\Providers\\EventServiceProvider -->
<g id="edge15" class="edge"><title>\\App\\Providers\\EventServiceProvider&#45;&gt;\\Illuminate\\Foundation\\Support\\Providers\\EventServiceProvider</title>
<path fill="none" stroke="black" d="M864.836,-973.258C859.522,-969.963 854.716,-965.931 850.937,-961 770.439,-855.979 880.245,-462.823 786.937,-369 781.922,-363.958 776.515,-359.47 770.791,-355.485"/>
<polygon fill="none" stroke="black" points="772.499,-352.423 762.185,-349.999 768.736,-358.326 772.499,-352.423"/>
</g>
<!-- \\App\\Providers\\RouteServiceProvider -->
<g id="node16" class="node"><title>\\App\\Providers\\RouteServiceProvider</title>
<polygon fill="none" stroke="black" points="978.437,-952 864.437,-952 864.437,-916 978.437,-916 978.437,-952"/>
<text text-anchor="middle" x="921.437" y="-931.2" font-family="Times,serif" font-size="11.00">RouteServiceProvider</text>
</g>
<!-- \\Illuminate\\Foundation\\Support\\Providers\\RouteServiceProvider -->
<g id="node33" class="node"><title>\\Illuminate\\Foundation\\Support\\Providers\\RouteServiceProvider</title>
<ellipse fill="none" stroke="black" cx="548.408" cy="-288" rx="238.558" ry="18"/>
<text text-anchor="middle" x="548.408" y="-284.3" font-family="Times,serif" font-size="14.00" fill="gray">\Illuminate\Foundation\Support\Providers\RouteServiceProvider</text>
</g>
<!-- \\App\\Providers\\RouteServiceProvider&#45;&gt;\\Illuminate\\Foundation\\Support\\Providers\\RouteServiceProvider -->
<g id="edge16" class="edge"><title>\\App\\Providers\\RouteServiceProvider&#45;&gt;\\Illuminate\\Foundation\\Support\\Providers\\RouteServiceProvider</title>
<path fill="none" stroke="black" d="M864.175,-918.842C859.123,-915.625 854.559,-911.726 850.937,-907 770.439,-801.979 880.245,-408.823 786.937,-315 781.922,-309.958 776.515,-305.47 770.791,-301.485"/>
<polygon fill="none" stroke="black" points="772.499,-298.423 762.185,-295.999 768.736,-304.326 772.499,-298.423"/>
</g>
<!-- \\App\\Providers\\AppServiceProvider -->
<g id="node17" class="node"><title>\\App\\Providers\\AppServiceProvider</title>
<polygon fill="none" stroke="black" points="974.937,-898 867.937,-898 867.937,-862 974.937,-862 974.937,-898"/>
<text text-anchor="middle" x="921.437" y="-877.2" font-family="Times,serif" font-size="11.00">AppServiceProvider</text>
</g>
<!-- \\Illuminate\\Support\\ServiceProvider -->
<g id="node34" class="node"><title>\\Illuminate\\Support\\ServiceProvider</title>
<ellipse fill="none" stroke="black" cx="548.408" cy="-234" rx="139.175" ry="18"/>
<text text-anchor="middle" x="548.408" y="-230.3" font-family="Times,serif" font-size="14.00" fill="gray">\Illuminate\Support\ServiceProvider</text>
</g>
<!-- \\App\\Providers\\AppServiceProvider&#45;&gt;\\Illuminate\\Support\\ServiceProvider -->
<g id="edge17" class="edge"><title>\\App\\Providers\\AppServiceProvider&#45;&gt;\\Illuminate\\Support\\ServiceProvider</title>
<path fill="none" stroke="black" d="M867.674,-870.743C861.273,-867.625 855.423,-863.486 850.937,-858 766.468,-754.715 880.982,-355.648 786.937,-261 750.195,-224.023 692.332,-216.83 642.916,-219.097"/>
<polygon fill="none" stroke="black" points="642.608,-215.608 632.832,-219.693 643.022,-222.596 642.608,-215.608"/>
</g>
<!-- \\App\\User -->
<g id="node18" class="node"><title>\\App\\User</title>
<polygon fill="none" stroke="black" points="948.437,-844 894.437,-844 894.437,-808 948.437,-808 948.437,-844"/>
<text text-anchor="middle" x="921.437" y="-823.2" font-family="Times,serif" font-size="11.00">User</text>
</g>
<!-- \\Illuminate\\Database\\Eloquent\\Model -->
<g id="node21" class="node"><title>\\Illuminate\\Database\\Eloquent\\Model</title>
<ellipse fill="none" stroke="black" cx="548.408" cy="-180" rx="144.075" ry="18"/>
<text text-anchor="middle" x="548.408" y="-176.3" font-family="Times,serif" font-size="14.00" fill="gray">\Illuminate\Database\Eloquent\Model</text>
</g>
<!-- \\App\\User&#45;&gt;\\Illuminate\\Database\\Eloquent\\Model -->
<g id="edge2" class="edge"><title>\\App\\User&#45;&gt;\\Illuminate\\Database\\Eloquent\\Model</title>
<path fill="none" stroke="black" d="M894.415,-824.566C879.385,-822.294 861.432,-816.834 850.937,-804 766.468,-700.715 880.982,-301.648 786.937,-207 750.674,-170.505 693.837,-163.023 644.852,-165.013"/>
<polygon fill="none" stroke="black" points="644.646,-161.519 634.849,-165.553 645.023,-168.509 644.646,-161.519"/>
</g>
<!-- \\Illuminate\\Contracts\\Auth\\Authenticatable -->
<g id="node22" class="node"><title>\\Illuminate\\Contracts\\Auth\\Authenticatable</title>
<ellipse fill="none" stroke="black" cx="548.408" cy="-126" rx="163.571" ry="18"/>
<text text-anchor="middle" x="548.408" y="-122.3" font-family="Times,serif" font-size="14.00" fill="gray">\Illuminate\Contracts\Auth\Authenticatable</text>
</g>
<!-- \\App\\User&#45;&gt;\\Illuminate\\Contracts\\Auth\\Authenticatable -->
<g id="edge3" class="edge"><title>\\App\\User&#45;&gt;\\Illuminate\\Contracts\\Auth\\Authenticatable</title>
<path fill="none" stroke="black" stroke-dasharray="1,5" d="M894.375,-824.599C879.33,-822.339 861.376,-816.88 850.937,-804 759.407,-691.071 888.941,-256.566 786.937,-153 752.202,-117.734 698.277,-109.467 650.581,-110.697"/>
<polygon fill="none" stroke="black" points="650.36,-107.203 640.507,-111.098 650.638,-114.198 650.36,-107.203"/>
</g>
<!-- \\Illuminate\\Contracts\\Auth\\CanResetPassword -->
<g id="node23" class="node"><title>\\Illuminate\\Contracts\\Auth\\CanResetPassword</title>
<ellipse fill="none" stroke="black" cx="548.408" cy="-72" rx="175.469" ry="18"/>
<text text-anchor="middle" x="548.408" y="-68.3" font-family="Times,serif" font-size="14.00" fill="gray">\Illuminate\Contracts\Auth\CanResetPassword</text>
</g>
<!-- \\App\\User&#45;&gt;\\Illuminate\\Contracts\\Auth\\CanResetPassword -->
<g id="edge4" class="edge"><title>\\App\\User&#45;&gt;\\Illuminate\\Contracts\\Auth\\CanResetPassword</title>
<path fill="none" stroke="black" stroke-dasharray="1,5" d="M894.34,-824.627C879.283,-822.377 861.328,-816.919 850.937,-804 752.341,-681.421 896.905,-211.488 786.937,-99 753.082,-64.3697 700.74,-55.6996 653.798,-56.5187"/>
<polygon fill="none" stroke="black" points="653.444,-53.0281 643.561,-56.8457 653.668,-60.0245 653.444,-53.0281"/>
</g>
<!-- \\SiteController -->
<g id="node19" class="node"><title>\\SiteController</title>
<polygon fill="none" stroke="black" points="960.937,-790 881.937,-790 881.937,-754 960.937,-754 960.937,-790"/>
<text text-anchor="middle" x="921.437" y="-769.2" font-family="Times,serif" font-size="11.00">SiteController</text>
</g>
<!-- \\Controller -->
<g id="node28" class="node"><title>\\Controller</title>
<ellipse fill="none" stroke="black" cx="548.408" cy="-18" rx="49.2915" ry="18"/>
<text text-anchor="middle" x="548.408" y="-14.3" font-family="Times,serif" font-size="14.00" fill="gray">\Controller</text>
</g>
<!-- \\SiteController&#45;&gt;\\Controller -->
<g id="edge11" class="edge"><title>\\SiteController&#45;&gt;\\Controller</title>
<path fill="none" stroke="black" d="M919.912,-753.81C916.558,-651.185 894.679,-145.611 786.937,-45 737.636,1.03727 655.197,-0.497906 601.567,-7.75686"/>
<polygon fill="none" stroke="black" points="600.961,-4.30824 591.574,-9.22048 601.975,-11.2344 600.961,-4.30824"/>
</g>
</g>
</svg>
